<svg width="1592" height="567" viewBox="0 0 1592 567" fill="none" xmlns="http://www.w3.org/2000/svg">
<g clip-path="url(#clip0_358_41)">
<rect width="1592" height="567" rx="200" fill="#161616"/>
<path d="M474.117 227V87.4H490.917V212.4H557.117V227H474.117ZM752.839 227V213.6H787.639V100.8H752.839V87.4H839.239V100.8H804.439V213.6H839.239V227H752.839ZM1090.36 102V227H1073.56V102H1026.96V87.4H1136.96V102H1090.36ZM541.117 421V376.8H539.517L510.117 448.6L480.717 376.8H479.117V421V491H463.717V351.4H485.317L509.917 413H511.117L535.717 351.4H556.517V491H541.117V421ZM768.839 351.4V435.2C768.839 442 769.039 448.067 769.439 453.4C769.839 458.733 770.906 463.333 772.639 467.2C774.372 470.933 777.039 473.8 780.639 475.8C784.372 477.8 789.506 478.8 796.039 478.8C802.572 478.8 807.639 477.8 811.239 475.8C814.972 473.8 817.706 470.933 819.439 467.2C821.172 463.333 822.239 458.733 822.639 453.4C823.039 448.067 823.239 442 823.239 435.2V351.4H840.039V431.2C840.039 441.6 839.506 450.667 838.439 458.4C837.506 466.133 835.439 472.6 832.239 477.8C829.172 483 824.706 486.933 818.839 489.6C813.106 492.133 805.506 493.4 796.039 493.4C786.572 493.4 778.906 492.133 773.039 489.6C767.306 486.933 762.839 483 759.639 477.8C756.572 472.6 754.506 466.133 753.439 458.4C752.506 450.667 752.039 441.6 752.039 431.2V351.4H768.839ZM1081.56 493.4C1069.03 493.4 1058.76 491.133 1050.76 486.6C1042.76 481.933 1036.16 476 1030.96 468.8L1043.16 458.8C1048.63 465.6 1054.36 470.667 1060.36 474C1066.49 477.333 1073.76 479 1082.16 479C1092.29 479 1100.03 476.667 1105.36 472C1110.69 467.333 1113.36 460.8 1113.36 452.4C1113.36 445.6 1111.43 440.333 1107.56 436.6C1103.69 432.733 1096.96 430 1087.36 428.4L1071.76 425.8C1064.96 424.6 1059.23 422.8 1054.56 420.4C1050.03 418 1046.36 415.133 1043.56 411.8C1040.76 408.333 1038.76 404.6 1037.56 400.6C1036.36 396.467 1035.76 392.2 1035.76 387.8C1035.76 375 1039.96 365.333 1048.36 358.8C1056.76 352.267 1068.09 349 1082.36 349C1093.56 349 1102.96 350.867 1110.56 354.6C1118.29 358.333 1124.49 363.6 1129.16 370.4L1117.36 380.6C1113.49 375.533 1108.83 371.4 1103.36 368.2C1097.89 365 1090.83 363.4 1082.16 363.4C1072.69 363.4 1065.43 365.4 1060.36 369.4C1055.29 373.4 1052.76 379.4 1052.76 387.4C1052.76 393.667 1054.63 398.8 1058.36 402.8C1062.23 406.667 1069.09 409.467 1078.96 411.2L1093.96 413.8C1100.76 415 1106.49 416.8 1111.16 419.2C1115.83 421.6 1119.56 424.467 1122.36 427.8C1125.29 431.133 1127.36 434.867 1128.56 439C1129.76 443.133 1130.36 447.467 1130.36 452C1130.36 464.933 1126.09 475.067 1117.56 482.4C1109.16 489.733 1097.16 493.4 1081.56 493.4Z" fill="#383838"/>
<path d="M831.873 356.895C844.881 356.895 855.425 367.44 855.425 380.448V380.448C855.425 393.455 844.881 404 831.873 404H674V380.895C674 367.641 684.745 356.895 698 356.895H831.873Z" fill="url(#paint0_linear_358_41)"/>
<path d="M674 246.34C674 233.588 684.338 223.25 697.09 223.25V223.25C709.843 223.25 720.181 233.588 720.181 246.341V380C720.181 393.255 709.436 404 696.181 404H674L674 246.34Z" fill="url(#paint1_linear_358_41)"/>
<path d="M893.448 296.645C906.455 296.645 917 307.19 917 320.198V320.198C917 333.205 906.455 343.75 893.448 343.75H735.575V320.645C735.575 307.391 746.32 296.645 759.575 296.645H893.448Z" fill="url(#paint2_linear_358_41)"/>
<path d="M735.575 186.09C735.575 173.338 745.913 163 758.665 163V163C771.418 163 781.756 173.338 781.756 186.09V319.75C781.756 333.005 771.01 343.75 757.756 343.75H735.575L735.575 186.09Z" fill="url(#paint3_linear_358_41)"/>
<path d="M792.751 187C792.751 173.745 803.496 163 816.751 163H893C906.255 163 917 173.745 917 187V262.786C917 276.041 906.255 286.786 893 286.786H816.751C803.496 286.786 792.751 276.041 792.751 262.786V187Z" fill="#FFD93D"/>
</g>
<defs>
<linearGradient id="paint0_linear_358_41" x1="705.775" y1="404" x2="822.422" y2="310.256" gradientUnits="userSpaceOnUse">
<stop stop-color="white"/>
<stop offset="1" stop-color="#FFD93D"/>
</linearGradient>
<linearGradient id="paint1_linear_358_41" x1="705.775" y1="404" x2="822.422" y2="310.256" gradientUnits="userSpaceOnUse">
<stop stop-color="white"/>
<stop offset="1" stop-color="#FFD93D"/>
</linearGradient>
<linearGradient id="paint2_linear_358_41" x1="705.775" y1="404" x2="822.422" y2="310.256" gradientUnits="userSpaceOnUse">
<stop stop-color="white"/>
<stop offset="1" stop-color="#FFD93D"/>
</linearGradient>
<linearGradient id="paint3_linear_358_41" x1="705.775" y1="404" x2="822.422" y2="310.256" gradientUnits="userSpaceOnUse">
<stop stop-color="white"/>
<stop offset="1" stop-color="#FFD93D"/>
</linearGradient>
<clipPath id="clip0_358_41">
<rect width="1592" height="567" rx="200" fill="white"/>
</clipPath>
</defs>
</svg>
